<?xml version="1.0" encoding="UTF-8" standalone="no"?>
<!-- Created with Inkscape (http://www.inkscape.org/) -->

<svg
   version="1.1"
   id="svg1"
   width="700"
   height="500"
   viewBox="0 0 700 500"
   sodipodi:docname="logo_purple.svg"
   inkscape:version="1.4.2 (ebf0e940, 2025-05-08)"
   inkscape:export-filename="logo_purple.png"
   inkscape:export-xdpi="96"
   inkscape:export-ydpi="96"
   xmlns:inkscape="http://www.inkscape.org/namespaces/inkscape"
   xmlns:sodipodi="http://sodipodi.sourceforge.net/DTD/sodipodi-0.dtd"
   xmlns="http://www.w3.org/2000/svg"
   xmlns:svg="http://www.w3.org/2000/svg">
  <defs
     id="defs1">
    <clipPath
       clipPathUnits="userSpaceOnUse"
       id="clipPath1">
      <rect
         style="fill:#000000;stroke-width:3.77953;stroke-linejoin:round"
         id="rect2"
         width="883.91284"
         height="701.67554"
         x="52.067795"
         y="105.37531" />
    </clipPath>
  </defs>
  <sodipodi:namedview
     id="namedview1"
     pagecolor="#ffffff"
     bordercolor="#000000"
     borderopacity="0.25"
     inkscape:showpageshadow="2"
     inkscape:pageopacity="0.0"
     inkscape:pagecheckerboard="0"
     inkscape:deskcolor="#d1d1d1"
     inkscape:zoom="0.80664062"
     inkscape:cx="244.22276"
     inkscape:cy="485.34625"
     inkscape:window-width="1920"
     inkscape:window-height="1052"
     inkscape:window-x="0"
     inkscape:window-y="28"
     inkscape:window-maximized="0"
     inkscape:current-layer="g1" />
  <g
     inkscape:groupmode="layer"
     inkscape:label="Image"
     id="g1">
    <rect
       style="fill:#0b1220;stroke-width:3.7559;stroke-linejoin:round;fill-opacity:1"
       id="rect3"
       width="700"
       height="500"
       x="0"
       y="0" />
    <path
       style="fill:#7c3aed;stroke-width:1.41109;fill-opacity:1"
       d="m 236.20273,463.27197 c 0,-12.00889 0.53521,-12.81526 8.50605,-12.81526 h 6.79302 l 0.46426,10.5865 c 0.25534,5.82254 0.28317,10.58498 0.0618,10.58315 -0.22133,-10e-4 -1.96756,-1.02869 -3.88051,-2.28217 -3.20172,-2.09787 -3.75447,-2.09787 -6.95619,0 -1.91295,1.25348 -3.81792,2.27892 -4.23328,2.27892 -0.41533,0 -0.75516,-3.75803 -0.75516,-8.35114 z m -194.731007,0.36517 c -12.42666,-4.31886 -21.60935,-13.27046 -26.43311,-25.7679 -2.33962,-6.06151 -2.49432,-17.97075 -2.49432,-192.0212 V 60.28915 l 3.93708,-8.01727 c 4.46045,-9.08309 11.29712,-15.71158 20.68537,-20.05552 5.94527,-2.75087 9.27404,-3.00361 44.87394,-3.407 L 120.493,28.37364 v 24.07155 24.07154 l -11.64153,0.008 c -6.40284,0.004 -14.040097,0.67395 -16.971687,1.48807 -6.95365,1.93104 -14.20945,8.40982 -17.85703,15.94472 -2.89269,5.97491 -2.91805,7.30325 -2.91805,152.87998 v 146.85271 l 3.94291,7.54759 c 2.83029,5.41779 5.82244,8.70961 10.60361,11.66558 5.88909,3.64095 8.29303,4.1966 20.751237,4.79651 l 14.09054,0.6785 v 23.79995 23.79992 l -36.335677,-0.0677 c -29.17983,-0.0536 -37.58621,-0.50192 -42.6856,-2.27423 z m 493.882987,-21.404 v -23.9115 l 14.46372,-0.55341 c 16.68785,-0.63849 23.85655,-3.62209 29.9989,-12.48553 4.90332,-7.07546 6.33678,-12.89462 6.33678,-25.72416 v -10.9453 h 28.195 c 28.06895,0 28.19846,0.0143 28.96984,3.17497 0.42615,1.74623 0.25343,17.14479 -0.38382,34.21903 -1.29777,34.77158 -2.03343,37.67908 -12.07427,47.71992 -10.92258,10.92261 -13.62269,11.48958 -57.05383,11.98177 l -38.45232,0.43575 z m -309.99572,20.91357 c -1.69548,-0.68312 -3.75921,-2.50612 -4.58605,-4.05107 -0.96576,-1.80452 -1.50334,-17.61575 -1.50334,-44.21508 0,-44.14276 0.31837,-46.32548 7.0123,-48.07599 2.82953,-0.73993 2.86536,-0.25364 2.86536,38.89106 0,38.45973 -0.0892,39.7353 -2.99477,42.82815 -4.05959,4.32122 -2.69627,9.61524 2.98626,11.59618 2.33299,0.81328 4.24179,2.14672 4.24179,2.96319 0,1.76417 -3.72728,1.7938 -8.02155,0.0635 z m 30.59906,-0.73552 c 0,-1.84852 2.75416,-2.1004 19.28689,-1.76387 13.88685,0.28267 19.45096,0.88645 19.87291,2.15647 0.45029,1.35534 -4.01674,1.76385 -19.28689,1.76385 -16.88718,0 -19.87291,-0.32399 -19.87291,-2.15645 z m 129.44598,0.62112 c -13.57684,-3.19867 -25.6664,-13.2422 -31.87169,-26.47776 -3.26088,-6.95528 -3.73652,-9.76607 -3.73652,-22.08074 0,-12.59152 0.42457,-14.97551 3.94293,-22.1402 15.58859,-31.74407 59.37926,-37.5832 83.29873,-11.1072 7.7641,8.59393 11.10203,17.15329 11.86505,30.42521 0.52783,9.18092 0.0879,12.77605 -2.35582,19.25413 -3.82657,10.14368 -9.81002,18.39619 -17.24092,23.77911 l -5.85097,4.23842 h 13.61712 c 12.67638,0 13.61712,0.19497 13.61712,2.82219 0,2.73807 -0.89348,2.81794 -29.98576,2.6805 -16.49216,-0.0776 -32.37683,-0.70514 -35.29927,-1.39366 z m 19.36125,-6.39667 c 3.35685,-1.28815 6.71816,-8.61528 5.61811,-12.24661 -0.51723,-1.70743 -2.24812,-4.53316 -3.84641,-6.27939 -5.59581,-6.11378 -16.5949,-2.66003 -18.73936,5.88422 -0.90415,3.60239 2.41496,11.38909 5.35966,12.57389 2.60268,1.04717 8.95913,1.08436 11.608,0.0679 z m -24.35814,-17.01839 c 5.96845,-5.37793 4.10263,-17.22327 -3.18865,-20.2434 -11.33219,-4.69395 -21.60999,8.12197 -14.57184,18.17036 4.21577,6.01885 12.33026,6.96599 17.76049,2.07304 z m 52.05998,0.56416 c 5.20266,-3.99449 7.05524,-12.30506 3.71335,-16.65778 -4.9702,-6.47347 -12.40369,-7.04879 -18.05512,-1.39735 -7.74989,7.74989 -3.50826,19.90912 6.91365,19.81899 2.85405,-0.0247 6.19671,-0.81843 7.42812,-1.76386 z m -30.6072,-14.54619 c 1.15585,-3.0121 -0.13984,-4.81149 -3.46463,-4.81149 -1.71519,0 -2.73891,0.96695 -2.73891,2.587 0,4.69909 4.61844,6.35518 6.20354,2.22449 z m 9.04033,-10.97382 c -0.51608,-3.59967 -5.03088,-4.82002 -6.23389,-1.685 -1.11595,2.90814 1.88691,6.49804 4.5732,5.46721 1.156,-0.44359 1.8973,-2.13191 1.66069,-3.78221 z m -17.36051,-0.18759 c 0,-4.20244 -5.50835,-3.78258 -6.1101,0.46572 -0.38751,2.73584 0.0864,3.2097 2.82219,2.82218 2.19194,-0.31048 3.28791,-1.40645 3.28791,-3.2879 z m -12.34708,-7.2482 c 5.34434,-5.87865 4.0904,-14.75928 -2.57033,-18.2037 -5.92112,-3.06191 -9.5218,-2.53648 -14.11856,2.0603 -6.65542,6.65541 -5.08518,15.53965 3.39461,19.20632 5.46847,2.36459 9.12622,1.52187 13.29428,-3.06292 z m 53.33295,0.25686 c 2.39134,-2.39132 3.4636,-5.03226 3.4636,-8.5307 0,-3.49844 -1.07226,-6.13937 -3.4636,-8.5307 -2.39133,-2.39134 -5.03226,-3.4636 -8.5307,-3.4636 -3.49844,0 -6.13938,1.07226 -8.5307,3.4636 -2.39134,2.39133 -3.4636,5.03226 -3.4636,8.5307 0,3.49844 1.07226,6.13938 3.4636,8.5307 2.39132,2.39134 5.03226,3.4636 8.5307,3.4636 3.49844,0 6.13937,-1.07226 8.5307,-3.4636 z m -34.04581,1.19599 c 1.22764,-0.47108 2.23205,-1.61407 2.23205,-2.53997 0,-2.58012 -2.93641,-4.93767 -5.11078,-4.10329 -2.01654,0.77383 -2.6501,4.91292 -1.00395,6.55904 1.14532,1.14535 1.11894,1.14477 3.88268,0.0842 z m 3.77384,-15.43866 c 7.73163,-3.99816 8.55551,-13.56246 1.63707,-19.0045 -1.9577,-1.53993 -4.97566,-2.79987 -6.70659,-2.79987 -4.25737,0 -10.0626,4.78913 -11.17429,9.21843 -1.16727,4.65075 1.73006,10.66534 6.23546,12.94421 4.50403,2.27818 4.94022,2.26257 10.00835,-0.35827 z m -170.5423,13.12022 0.37475,-39.86342 28.44506,-0.38157 c 24.47272,-0.32829 28.75875,-0.0679 30.6913,1.86466 1.94304,1.94304 2.24624,7.3754 2.24624,40.24499 v 37.99875 h -31.06605 -31.06605 z m 50.18638,-6.98492 c 2.36184,-2.36185 2.11199,-8.36972 -0.50334,-12.10365 -2.07574,-2.96354 -3.19256,-3.13617 -20.28809,-3.13617 -12.77979,0 -18.50576,0.51787 -19.50261,1.76387 -2.54687,3.18341 -3.26378,7.67728 -1.82744,11.45515 l 1.41211,3.71411 h 19.50803 c 13.29145,0 20.04763,-0.5396 21.20134,-1.69331 z m 307.74851,-82.61793 c -11.94585,-12.99881 -27.91088,-30.09941 -35.47788,-38.00135 -8.34363,-8.71294 -13.75817,-15.51648 -13.75817,-17.28754 0,-2.82741 0.69579,-2.92039 21.85294,-2.92039 h 21.85294 l 0.3718,-46.91888 0.37179,-46.91889 27.85005,-0.38253 27.85006,-0.38255 0.37183,46.94866 0.37183,46.94865 21.75713,0.70554 c 14.91996,0.48384 21.93075,1.22904 22.30964,2.37137 0.64552,1.94619 -1.51454,4.4546 -36.84203,42.78365 -28.75569,31.19887 -34.13835,36.68845 -35.97392,36.68845 -0.65358,0 -10.96218,-10.63539 -22.90801,-23.63419 z m -448.57572,-64.5592 v -61.3826 h 16.72371 16.72371 l 12.16579,30.6913 c 6.69118,16.88021 12.89674,32.80313 13.79012,35.38426 0.89339,2.58113 2.13586,4.16861 2.76104,3.52773 0.62519,-0.64087 7.28074,-16.56379 14.79012,-35.38426 l 13.65344,-34.21903 h 16.78417 16.78419 v 61.3826 61.3826 h -13.38157 -13.38158 l -0.37659,-36.33568 -0.37659,-36.33568 -9.71336,24.69415 c -5.34234,13.58179 -10.87533,27.42116 -12.29554,30.75417 l -2.58217,6.06 -10.17481,-0.41563 -10.17481,-0.41563 -8.7544,-22.57751 c -4.81492,-12.41763 -10.36731,-26.06997 -12.33862,-30.33853 l -3.58422,-7.76102 -0.11557,36.33568 -0.11571,36.33568 h -13.4054 -13.40539 z m 143.93161,-0.0435 v -61.42604 l 17.14735,0.39621 17.14734,0.39621 13.53788,34.92458 c 7.44584,19.20852 13.86716,34.92458 14.26962,34.92458 0.40246,0 7.0726,-15.71606 14.82256,-34.92458 l 14.09083,-34.92456 17.28591,-0.3962 17.2859,-0.39621 v 61.42603 61.42604 H 398.5028 384.41608 l -0.377,-35.58268 -0.377,-35.58267 -11.13264,28.51763 c -6.12297,15.68471 -11.93949,29.18726 -12.92561,30.00568 -0.99121,0.82263 -6.05516,1.30014 -11.32459,1.06788 l -9.53163,-0.42014 -11.5579,-29.31149 c -6.35684,-16.12132 -11.96716,-29.72074 -12.46735,-30.22093 -0.5002,-0.5002 -0.90945,15.38869 -0.90945,35.30863 v 36.21809 h -13.40539 -13.4054 z m 172.1535,12.03776 v -49.3883 h -17.63868 -17.63867 v -11.9943 -11.9943 h 48.68275 48.68275 v 11.9943 11.9943 h -16.93313 -16.93313 v 49.3883 49.3883 h -14.11094 -14.11095 z m 154.8676,-129.49773 -27.86911,-0.3826 v -13.85685 c 0,-21.94369 -5.05371,-33.5793 -17.36765,-39.98715 -4.53776,-2.36134 -9.11957,-3.2181 -19.67358,-3.67884 l -13.75817,-0.6006 V 52.36397 28.53949 h 33.79681 c 18.99501,0 36.92732,0.67137 40.94469,1.53294 13.44505,2.88346 27.78549,15.82589 31.07621,28.04671 0.89308,3.31662 1.32511,19.55258 1.09673,41.21517 l -0.37682,35.74279 z"
       id="path1" />
  </g>
</svg>
