<?xml version="1.0" encoding="UTF-8" standalone="no"?>
<!-- Created with Inkscape (http://www.inkscape.org/) -->

<svg
   width="700"
   height="500"
   viewBox="0 0 185.20833 132.29167"
   version="1.1"
   id="svg1"
   inkscape:version="1.4.2 (ebf0e940, 2025-05-08)"
   sodipodi:docname="logo_white.svg"
   inkscape:export-filename="logo_white.png"
   inkscape:export-xdpi="96"
   inkscape:export-ydpi="96"
   xmlns:inkscape="http://www.inkscape.org/namespaces/inkscape"
   xmlns:sodipodi="http://sodipodi.sourceforge.net/DTD/sodipodi-0.dtd"
   xmlns="http://www.w3.org/2000/svg"
   xmlns:svg="http://www.w3.org/2000/svg">
  <sodipodi:namedview
     id="namedview1"
     pagecolor="#ffffff"
     bordercolor="#000000"
     borderopacity="0.25"
     inkscape:showpageshadow="2"
     inkscape:pageopacity="0.0"
     inkscape:pagecheckerboard="0"
     inkscape:deskcolor="#d1d1d1"
     inkscape:document-units="mm"
     inkscape:zoom="0.30273462"
     inkscape:cx="-298.94169"
     inkscape:cy="1098.3217"
     inkscape:window-width="1920"
     inkscape:window-height="1080"
     inkscape:window-x="0"
     inkscape:window-y="0"
     inkscape:window-maximized="0"
     inkscape:current-layer="layer1" />
  <defs
     id="defs1" />
  <g
     inkscape:label="Layer 1"
     inkscape:groupmode="layer"
     id="layer1">
    <path
       style="fill:#ffffff;stroke-width:0.373351"
       d="m 62.495252,122.57403 c 0,-3.17735 0.14161,-3.3907 2.25056,-3.3907 h 1.79732 l 0.12284,2.80101 c 0.0676,1.54055 0.0749,2.80061 0.0164,2.80013 -0.0586,-2.7e-4 -0.52058,-0.27218 -1.02672,-0.60383 -0.84712,-0.55506 -0.99337,-0.55506 -1.84049,0 -0.50613,0.33165 -1.01016,0.60297 -1.12006,0.60297 -0.10988,0 -0.1998,-0.99431 -0.1998,-2.20958 z m -51.522567,0.0966 c -3.2878902,-1.1427 -5.7174802,-3.51114 -6.9937602,-6.81775 -0.61903,-1.60378 -0.65996,-4.75476 -0.65996,-50.805603 V 15.951506 l 1.04169,-2.121236 c 1.18016,-2.403235 2.98902,-4.1570229 5.473,-5.3063568 1.5730202,-0.727834 2.4537602,-0.794705 11.8729002,-0.901435 l 10.17384,-0.115284 v 6.3689298 6.368929 l -3.08016,0.0021 c -1.69408,0.0011 -3.71477,0.178316 -4.49042,0.393719 -1.83982,0.510921 -3.75959,2.225098 -4.72467,4.218707 -0.76536,1.580862 -0.77207,1.932318 -0.77207,40.449488 v 38.854783 l 1.04323,1.99697 c 0.74884,1.43345 1.54052,2.30442 2.80553,3.08652 1.55816,0.96333 2.1942,1.11034 5.49044,1.26906 l 3.72812,0.17952 v 6.29707 6.29706 l -9.61382,-0.0179 c -7.72049,-0.0142 -9.94468,-0.1328 -11.29389,-0.60172 z m 130.673195,-5.66314 v -6.32658 l 3.82686,-0.14643 c 4.41533,-0.16893 6.31205,-0.95833 7.93721,-3.30345 1.29734,-1.87205 1.67661,-3.4117 1.67661,-6.80618 v -2.895953 h 7.45992 c 7.42658,0 7.46085,0.004 7.66494,0.84005 0.11275,0.46202 0.067,4.536223 -0.10155,9.053783 -0.34337,9.19997 -0.53801,9.96925 -3.19465,12.62589 -2.88994,2.88994 -3.60434,3.03995 -15.0955,3.17017 l -10.17384,0.1153 z m -82.019698,5.53338 c -0.44859,-0.18074 -0.99462,-0.66307 -1.21339,-1.07184 -0.25552,-0.47745 -0.39776,-4.66084 -0.39776,-11.69857 0,-11.679433 0.0842,-12.256953 1.85534,-12.720103 0.74864,-0.19577 0.75812,-0.0671 0.75812,10.289933 0,10.17579 -0.0236,10.51328 -0.79236,11.3316 -1.0741,1.14332 -0.71339,2.54403 0.79011,3.06816 0.61727,0.21518 1.12231,0.56798 1.12231,0.78401 0,0.46677 -0.98618,0.47461 -2.12237,0.0168 z m 8.096,-0.1946 c 0,-0.48909 0.72871,-0.55573 5.10299,-0.46669 3.67423,0.0748 5.1464,0.23454 5.25804,0.57056 0.11914,0.3586 -1.06276,0.46669 -5.10299,0.46669 -4.46806,0 -5.25804,-0.0857 -5.25804,-0.57056 z m 34.249248,0.16433 c -3.592198,-0.84631 -6.790898,-3.50366 -8.432718,-7.00557 -0.86277,-1.84025 -0.98862,-2.58394 -0.98862,-5.84218 0,-3.33151 0.11234,-3.96228 1.04324,-5.85793 4.12448,-8.398953 15.710758,-9.943893 22.039448,-2.93878 2.05425,2.27381 2.93741,4.53847 3.1393,8.05 0.13965,2.42911 0.0232,3.38032 -0.62331,5.09431 -1.01245,2.68385 -2.59557,4.86733 -4.56166,6.29156 l -1.54807,1.12141 h 3.60286 c 3.35396,0 3.60286,0.0516 3.60286,0.74671 0,0.72445 -0.2364,0.74558 -7.93373,0.70921 -4.36355,-0.0205 -8.56637,-0.18656 -9.3396,-0.36874 z m 5.12267,-1.69245 c 0.88816,-0.34082 1.77751,-2.27946 1.48645,-3.24025 -0.13685,-0.45175 -0.59481,-1.19939 -1.01769,-1.66142 -1.48056,-1.6176 -4.39074,-0.7038 -4.95812,1.55687 -0.23923,0.95313 0.63895,3.01336 1.41807,3.32684 0.68863,0.27706 2.37044,0.2869 3.07129,0.018 z m -6.44476,-4.50278 c 1.57915,-1.42291 1.08548,-4.55699 -0.843668,-5.35607 -2.9983,-1.24193 -5.71764,2.14894 -3.85546,4.80758 1.11542,1.59249 3.26238,1.84308 4.699128,0.54849 z m 13.7742,0.14927 c 1.37654,-1.05688 1.8667,-3.25572 0.98249,-4.40737 -1.31503,-1.71278 -3.28181,-1.86499 -4.77708,-0.36972 -2.05049,2.05049 -0.92823,5.26762 1.82923,5.24378 0.75514,-0.007 1.63955,-0.21655 1.96536,-0.46669 z m -8.09815,-3.84868 c 0.30581,-0.79695 -0.037,-1.27304 -0.91669,-1.27304 -0.45381,0 -0.72467,0.25584 -0.72467,0.68448 0,1.2433 1.22196,1.68147 1.64136,0.58856 z m 2.39192,-2.90348 c -0.13655,-0.95241 -1.33109,-1.2753 -1.64939,-0.44582 -0.29526,0.76944 0.49925,1.71926 1.21,1.44652 0.30585,-0.11737 0.50199,-0.56406 0.43939,-1.0007 z m -4.59331,-0.0496 c 0,-1.1119 -1.45741,-1.00081 -1.61663,0.12322 -0.10252,0.72384 0.0229,0.84922 0.74671,0.74669 0.57995,-0.0822 0.86992,-0.37211 0.86992,-0.86991 z m -3.26683,-1.91776 c 1.41403,-1.55539 1.08225,-3.90506 -0.68006,-4.81639 -1.566628,-0.81013 -2.519308,-0.67111 -3.735538,0.54512 -1.76091,1.76091 -1.34545,4.11153 0.89816,5.08167 1.44686,0.62563 2.41464,0.40266 3.517438,-0.8104 z m 14.11101,0.068 c 0.63271,-0.6327 0.91641,-1.33145 0.91641,-2.25708 0,-0.92563 -0.2837,-1.62437 -0.91641,-2.25708 -0.6327,-0.63271 -1.33145,-0.91641 -2.25708,-0.91641 -0.92563,0 -1.62438,0.2837 -2.25708,0.91641 -0.63271,0.63271 -0.91641,1.33145 -0.91641,2.25708 0,0.92563 0.2837,1.62438 0.91641,2.25708 0.6327,0.63271 1.33145,0.91641 2.25708,0.91641 0.92563,0 1.62438,-0.2837 2.25708,-0.91641 z m -9.00795,0.31644 c 0.32481,-0.12464 0.59056,-0.42705 0.59056,-0.67203 0,-0.68266 -0.77692,-1.30643 -1.35223,-1.08566 -0.53354,0.20474 -0.70117,1.29987 -0.26562,1.73541 0.30303,0.30304 0.29605,0.30289 1.02729,0.0223 z m 0.99849,-4.08481 c 2.04566,-1.05785 2.26365,-3.5884 0.43315,-5.028273 -0.51798,-0.40744 -1.31648,-0.7408 -1.77446,-0.7408 -1.12643,0 -2.66239,1.26712 -2.95653,2.439043 -0.30884,1.23051 0.45775,2.82187 1.6498,3.42482 1.19169,0.60277 1.3071,0.59864 2.64804,-0.0948 z m -45.122648,3.47139 0.0992,-10.547193 7.52609,-0.10096 c 6.47507,-0.0869 7.60908,-0.018 8.1204,0.49336 0.5141,0.51409 0.59432,1.9514 0.59432,10.648153 v 10.05383 h -8.21956 -8.21956 z m 13.27848,-1.84809 c 0.62491,-0.62491 0.5588,-2.21449 -0.13317,-3.20243 -0.54921,-0.7841 -0.8447,-0.82977 -5.36789,-0.82977 -3.38132,0 -4.89632,0.13702 -5.16007,0.46669 -0.67386,0.84227 -0.86354,2.03128 -0.48351,3.03084 l 0.37362,0.98269 h 5.1615 c 3.5167,0 5.30427,-0.14277 5.60952,-0.44802 z M 156.53968,83.808717 c -3.16067,-3.43927 -7.38475,-7.9638 -9.38686,-10.05452 -2.20758,-2.3053 -3.64018,-4.1054 -3.64018,-4.574 0,-0.74808 0.1841,-0.77268 5.78192,-0.77268 h 5.78193 l 0.0984,-12.413957 0.0984,-12.413957 7.36866,-0.101211 7.36866,-0.101216 0.0984,12.421833 0.0984,12.421828 5.75657,0.18668 c 3.94758,0.12801 5.80252,0.32518 5.90276,0.62742 0.1708,0.51493 -0.40072,1.17861 -9.74778,11.31984 -7.60828,8.2547 -9.03244,9.70715 -9.5181,9.70715 -0.17293,0 -2.90041,-2.81394 -6.06108,-6.25321 z M 37.854025,66.727377 v -16.24081 h 4.42482 4.42481 l 3.218867,8.12041 c 1.77037,4.46622 3.41226,8.67916 3.64863,9.36208 0.23638,0.68293 0.56512,1.10295 0.73053,0.93338 0.16541,-0.16956 1.92636,-4.3825 3.91322,-9.36208 l 3.61247,-9.05379 h 4.44081 4.44082 v 16.24081 16.24082 h -3.54054 -3.54055 l -0.0996,-9.61382 -0.0996,-9.61381 -2.57,6.53366 c -1.41349,3.59351 -2.87743,7.25518 -3.25319,8.13704 l -0.6832,1.60337 -2.69209,-0.10997 -2.69208,-0.10997 -2.31627,-5.97363 c -1.27395,-3.2855 -2.743017,-6.89768 -3.264587,-8.02707 l -0.94833,-2.05343 -0.0306,9.61381 -0.0306,9.61382 h -3.54685 -3.54684 z m 38.081907,-0.0115 V 50.463565 l 4.5369,0.10483 4.5369,0.104831 3.5819,9.240461 c 1.97004,5.08225 3.66902,9.24046 3.7755,9.24046 0.10648,0 1.87129,-4.15821 3.9218,-9.24046 l 3.728198,-9.240456 4.57357,-0.104828 4.57356,-0.10483 v 16.252304 16.25231 h -3.72711 -3.72711 l -0.0997,-9.41459 -0.0998,-9.41458 -2.945508,7.54529 c -1.62004,4.14991 -3.15899,7.72246 -3.4199,7.939 -0.26226,0.21766 -1.6021,0.344 -2.9963,0.28255 l -2.52191,-0.11117 -3.05803,-7.75533 c -1.68191,-4.26543 -3.16631,-7.86361 -3.29865,-7.99595 -0.13234,-0.13235 -0.24063,4.07159 -0.24063,9.34207 v 9.58271 h -3.54684 -3.54684 z m 45.548938,3.18499 V 56.833541 h -4.6669 -4.6669 v -3.173492 -3.173492 h 12.88065 12.88064 v 3.173492 3.173492 h -4.48022 -4.48023 v 13.067316 13.06733 h -3.73352 -3.73352 z m 40.97539,-34.262936 -7.3737,-0.10123 V 31.87041 c 0,-5.805935 -1.33713,-8.884523 -4.59519,-10.579934 -1.20062,-0.624771 -2.41289,-0.851455 -5.20531,-0.973359 l -3.64018,-0.158909 V 13.854645 7.5510852 h 8.94207 c 5.02577,0 9.77036,0.177633 10.83329,0.40559 3.55733,0.762916 7.35157,4.1872668 8.22224,7.4206918 0.2363,0.877522 0.35061,5.173287 0.29018,10.904847 l -0.0997,9.456946 z"
       id="path1" />
  </g>
</svg>
