<?xml version="1.0" encoding="UTF-8" standalone="no"?>
<!-- Created with Inkscape (http://www.inkscape.org/) -->

<svg
   version="1.1"
   id="svg1"
   width="120"
   height="120"
   viewBox="0 0 120 120"
   sodipodi:docname="logo_square.svg"
   inkscape:export-filename="logo_square.png"
   inkscape:export-xdpi="96"
   inkscape:export-ydpi="96"
   inkscape:version="1.4.2 (ebf0e940, 2025-05-08)"
   xmlns:inkscape="http://www.inkscape.org/namespaces/inkscape"
   xmlns:sodipodi="http://sodipodi.sourceforge.net/DTD/sodipodi-0.dtd"
   xmlns="http://www.w3.org/2000/svg"
   xmlns:svg="http://www.w3.org/2000/svg">
  <defs
     id="defs1" />
  <sodipodi:namedview
     id="namedview1"
     pagecolor="#ffffff"
     bordercolor="#000000"
     borderopacity="0.25"
     inkscape:showpageshadow="2"
     inkscape:pageopacity="0.0"
     inkscape:pagecheckerboard="0"
     inkscape:deskcolor="#d1d1d1"
     inkscape:zoom="2.6004168"
     inkscape:cx="101.32991"
     inkscape:cy="100.94536"
     inkscape:window-width="1920"
     inkscape:window-height="1052"
     inkscape:window-x="0"
     inkscape:window-y="28"
     inkscape:window-maximized="0"
     inkscape:current-layer="g1" />
  <g
     inkscape:groupmode="layer"
     inkscape:label="Image"
     id="g1"
     transform="translate(-299.85381,-415.07512)">
    <path
       style="fill:#000000;stroke-width:0.227738"
       d="m 341.48794,509.49536 c 0,-1.93813 0.0864,-2.06827 1.3728,-2.06827 h 1.09633 l 0.0749,1.70857 c 0.0412,0.93971 0.0457,1.70832 0.01,1.70803 -0.0357,-1.6e-4 -0.31755,-0.16602 -0.62628,-0.36833 -0.51673,-0.33857 -0.60594,-0.33857 -1.12267,0 -0.30874,0.20231 -0.61618,0.3678 -0.68322,0.3678 -0.067,0 -0.12187,-0.60651 -0.12187,-1.3478 z m -31.42789,0.0589 c -2.00555,-0.69703 -3.48756,-2.14174 -4.26607,-4.15872 -0.37759,-0.97827 -0.40256,-2.90032 -0.40256,-30.99054 v -29.94759 l 0.63541,-1.29391 c 0.71988,-1.46593 1.82326,-2.53571 3.33844,-3.23679 0.95951,-0.44396 1.49675,-0.48475 7.24226,-0.54986 l 6.20587,-0.0703 v 3.88494 3.88493 l -1.87884,0.001 c -1.03336,6.4e-4 -2.26595,0.10876 -2.73908,0.24016 -1.12226,0.31165 -2.29329,1.35727 -2.88197,2.57334 -0.46686,0.96429 -0.47095,1.17868 -0.47095,24.67349 v 23.70074 l 0.63635,1.21812 c 0.45678,0.87438 0.93969,1.40565 1.71133,1.88272 0.95045,0.58762 1.33842,0.6773 3.34907,0.77412 l 2.27409,0.1095 v 3.8411 3.8411 l -5.86426,-0.0109 c -4.70937,-0.009 -6.06609,-0.081 -6.88909,-0.36704 z m 79.70841,-3.45442 v -3.85911 l 2.33431,-0.0893 c 2.69328,-0.10305 3.85024,-0.58458 4.84156,-2.01506 0.79136,-1.14192 1.0227,-2.08108 1.0227,-4.15165 v -1.76648 h 4.55043 c 4.53008,0 4.55099,0.002 4.67548,0.51241 0.0688,0.28183 0.0409,2.76702 -0.0619,5.52265 -0.20945,5.61183 -0.32818,6.08108 -1.94869,7.70158 -1.76281,1.76282 -2.19858,1.85432 -9.20799,1.93376 l -6.20586,0.0703 z m -50.03061,3.37527 c -0.27363,-0.11025 -0.6067,-0.40447 -0.74014,-0.65381 -0.15587,-0.29124 -0.24263,-2.84303 -0.24263,-7.13593 0,-7.12426 0.0514,-7.47653 1.13172,-7.75904 0.45666,-0.11942 0.46245,-0.0409 0.46245,6.27667 0,6.20707 -0.0144,6.41293 -0.48333,6.91209 -0.65518,0.69741 -0.43516,1.55182 0.48195,1.87152 0.37653,0.13126 0.68459,0.34647 0.68459,0.47824 0,0.28472 -0.60155,0.2895 -1.29461,0.0103 z m 4.93842,-0.11871 c 0,-0.29834 0.4445,-0.33899 3.11274,-0.28467 2.24122,0.0456 3.13922,0.14306 3.20731,0.34803 0.0727,0.21874 -0.64826,0.28467 -3.11273,0.28467 -2.72544,0 -3.20732,-0.0523 -3.20732,-0.34803 z m 20.89146,0.10024 c -2.19119,-0.51623 -4.14234,-2.13717 -5.14382,-4.27328 -0.52627,-1.12252 -0.60304,-1.57615 -0.60304,-3.56364 0,-2.03216 0.0685,-2.41691 0.63636,-3.57323 2.51586,-5.12322 9.58329,-6.0656 13.44368,-1.79261 1.25306,1.38699 1.79177,2.7684 1.91492,4.91037 0.0852,1.48172 0.0142,2.06194 -0.38021,3.10745 -0.61758,1.6371 -1.58325,2.96898 -2.78253,3.83774 l -0.9443,0.68404 h 2.19768 c 2.04586,0 2.19769,0.0315 2.19769,0.45548 0,0.4419 -0.1442,0.45479 -4.83944,0.43261 -2.66169,-0.0125 -5.22534,-0.11381 -5.69699,-0.22493 z m 3.12473,-1.03236 c 0.54177,-0.2079 1.08425,-1.39043 0.90672,-1.9765 -0.0835,-0.27556 -0.36283,-0.73161 -0.62078,-1.01344 -0.90312,-0.98671 -2.67827,-0.4293 -3.02437,0.94966 -0.14592,0.5814 0.38975,1.8381 0.865,2.02932 0.42005,0.169 1.44593,0.17501 1.87343,0.011 z m -3.93119,-2.74662 c 0.96326,-0.86795 0.66213,-2.77969 -0.51462,-3.26711 -1.82892,-0.75756 -3.48766,1.31081 -2.35177,2.93254 0.68039,0.97139 1.99,1.12425 2.86639,0.33457 z m 8.40203,0.091 c 0.83966,-0.64468 1.13865,-1.98593 0.5993,-2.68842 -0.80215,-1.04476 -2.00185,-1.13762 -2.91394,-0.22552 -1.25076,1.25076 -0.5662,3.21315 1.1158,3.19861 0.46062,-0.004 1.0001,-0.13209 1.19884,-0.28467 z m -4.93974,-2.34763 c 0.18655,-0.48613 -0.0226,-0.77653 -0.55916,-0.77653 -0.27682,0 -0.44204,0.15605 -0.44204,0.41752 0,0.75839 0.74538,1.02567 1.0012,0.35901 z m 1.45903,-1.77108 c -0.0833,-0.58095 -0.81194,-0.77791 -1.00609,-0.27194 -0.18011,0.46934 0.30453,1.04872 0.73807,0.88236 0.18657,-0.0716 0.30621,-0.34408 0.26802,-0.61042 z m -2.80183,-0.0303 c 0,-0.67823 -0.889,-0.61047 -0.98612,0.0752 -0.0625,0.44154 0.014,0.51802 0.45548,0.45547 0.35376,-0.0501 0.53064,-0.22699 0.53064,-0.53064 z m -1.99271,-1.16979 c 0.86253,-0.94876 0.66015,-2.38202 -0.41483,-2.93792 -0.95562,-0.49416 -1.53674,-0.40937 -2.27861,0.33252 -1.07413,1.07412 -0.82071,2.50796 0.54786,3.09973 0.88256,0.38162 1.47289,0.24561 2.14558,-0.49433 z m 8.60747,0.0414 c 0.38594,-0.38593 0.55899,-0.81216 0.55899,-1.37678 0,-0.56461 -0.17305,-0.99084 -0.55899,-1.37678 -0.38594,-0.38594 -0.81216,-0.55899 -1.37678,-0.55899 -0.56462,0 -0.99084,0.17305 -1.37678,0.55899 -0.38594,0.38594 -0.559,0.81217 -0.559,1.37678 0,0.56462 0.17306,0.99085 0.559,1.37678 0.38594,0.38595 0.81216,0.559 1.37678,0.559 0.56462,0 0.99084,-0.17305 1.37678,-0.559 z m -5.4947,0.19303 c 0.19813,-0.076 0.36024,-0.2605 0.36024,-0.40993 0,-0.41641 -0.47391,-0.7969 -0.82484,-0.66224 -0.32545,0.12489 -0.4277,0.7929 -0.16203,1.05857 0.18485,0.18485 0.18059,0.18476 0.62663,0.0136 z m 0.60907,-2.49167 c 1.24782,-0.64527 1.38078,-2.18886 0.26421,-3.06716 -0.31596,-0.24853 -0.80303,-0.45187 -1.08239,-0.45187 -0.6871,0 -1.62401,0.77292 -1.80343,1.48777 -0.18839,0.75059 0.27922,1.72129 1.00635,2.08908 0.72691,0.36768 0.79731,0.36516 1.61526,-0.0578 z m -27.52404,2.11749 0.0605,-6.43361 4.59079,-0.0616 c 3.94968,-0.053 4.64141,-0.011 4.9533,0.30094 0.31359,0.31359 0.36253,1.19033 0.36253,6.49519 v 6.13267 h -5.01379 -5.01379 z m 8.09964,-1.1273 c 0.38118,-0.38119 0.34086,-1.3508 -0.0812,-1.95343 -0.33501,-0.47829 -0.51525,-0.50615 -3.27432,-0.50615 -2.06255,0 -2.98667,0.0836 -3.14755,0.28467 -0.41105,0.51378 -0.52675,1.23905 -0.29494,1.84877 l 0.22791,0.59942 h 3.14842 c 2.14513,0 3.23551,-0.0871 3.42171,-0.27328 z m 49.66792,-13.33382 c -1.92795,-2.09789 -4.50457,-4.85778 -5.72582,-6.13308 -1.34658,-1.4062 -2.22044,-2.50423 -2.22044,-2.79006 0,-0.45632 0.11229,-0.47133 3.52687,-0.47133 h 3.52687 l 0.06,-7.57229 0.06,-7.5723 4.49476,-0.0617 4.49475,-0.0617 0.06,7.5771 0.06,7.57711 3.51141,0.11386 c 2.40796,0.0781 3.53944,0.19836 3.60059,0.38272 0.10418,0.3141 -0.24444,0.71894 -5.94599,6.90491 -4.64091,5.03522 -5.50963,5.92119 -5.80587,5.92119 -0.10548,0 -1.7692,-1.71645 -3.69716,-3.81435 z m -72.3962,-10.41929 v -9.90661 h 2.69906 2.69906 l 1.96346,4.9533 c 1.07989,2.72432 2.08142,5.29414 2.2256,5.71071 0.14419,0.41658 0.34471,0.67278 0.44561,0.56935 0.1009,-0.10343 1.17505,-2.67325 2.38699,-5.71071 l 2.20355,-5.52265 h 2.70882 2.70882 v 9.90661 9.90662 h -2.15967 -2.15967 l -0.0608,-5.86426 -0.0608,-5.86427 -1.56766,3.98542 c -0.8622,2.19199 -1.75518,4.42554 -1.98439,4.96346 l -0.41674,0.97803 -1.64212,-0.0671 -1.64213,-0.0671 -1.41288,-3.64381 c -0.77709,-2.0041 -1.6732,-4.20747 -1.99135,-4.89637 l -0.57846,-1.25257 -0.0186,5.86427 -0.0187,5.86426 h -2.16351 -2.16351 z m 23.22931,-0.007 v -9.91363 l 2.76743,0.0639 2.76743,0.0639 2.1849,5.63653 c 1.20169,3.10008 2.23803,5.63652 2.30299,5.63652 0.0649,0 1.14145,-2.53644 2.39223,-5.63652 l 2.27414,-5.63652 2.78979,-0.0639 2.78979,-0.0639 v 9.91362 9.91363 h -2.27347 -2.27347 l -0.0609,-5.74273 -0.0608,-5.74274 -1.79671,4.6025 c -0.9882,2.53138 -1.92693,4.71057 -2.08608,4.84266 -0.15997,0.13276 -0.97725,0.20983 -1.82769,0.17234 l -1.53832,-0.0678 -1.86535,-4.73062 c -1.02594,-2.60184 -1.93139,-4.79667 -2.01212,-4.8774 -0.0807,-0.0807 -0.14678,2.4836 -0.14678,5.69851 v 5.84528 h -2.16351 -2.16351 z m 27.78407,1.94279 v -7.97084 h -2.84673 -2.84673 v -1.93577 -1.93578 h 7.85697 7.85697 v 1.93578 1.93577 h -2.73286 -2.73286 v 7.97084 7.97084 h -2.27738 -2.27738 z m 24.99428,-20.8998 -4.49784,-0.0618 v -2.23637 c 0,-3.54152 -0.81562,-5.41941 -2.80298,-6.45358 -0.73236,-0.3811 -1.47182,-0.51937 -3.17515,-0.59373 l -2.22044,-0.0969 v -3.84506 -3.84506 h 5.45451 c 3.06562,0 5.95974,0.10835 6.60811,0.2474 2.16991,0.46537 4.48434,2.55416 5.01543,4.52649 0.14413,0.53528 0.21386,3.15562 0.177,6.65177 l -0.0608,5.76858 z"
       id="path1" />
  </g>
</svg>
